<svg id="Calque_1" data-name="Calque 1" xmlns="http://www.w3.org/2000/svg" viewBox="0 0 125 109"><title>Plan de travail 1</title><path d="M59,79.49c-.54,0-1.12.64-1.51,1.57a10.29,10.29,0,0,1-4.06,5.33c-1.91,1.18-1.62,1.18,1.81,0a28.83,28.83,0,0,1,4.89-1.27c1.86-.29,2.2-.54,2.69-1.91a2.85,2.85,0,0,0,0-2.88,2.77,2.77,0,0,1-.38-1.84H60.64A2.36,2.36,0,0,1,59,79.49Z"/><path d="M72.71,85.07c0,1.13-3,6.17-4.3,7.14s-1.67,1-6.51.69c-5.68-.34-12.33.68-12.82,2-.14.39-1.47.83-3.23,1a9.53,9.53,0,0,0-5,1.81A5.69,5.69,0,0,1,38.12,99c-1.17-.25-1.81-1.57-1.41-3,.44-1.76,4.06-5.67,5.28-5.67a1.3,1.3,0,0,0,1.17-.88,13.91,13.91,0,0,1,1-2.2c.39-.79.64-1.47.54-1.57-.93-.93-7.1-3.62-7.73-3.38a19.18,19.18,0,0,1-4.45.44c-3.33,0-4.06.2-6.31,1.62a10.23,10.23,0,0,1-3.38,1.56c-2.4,0-2.49-3.62-.19-6.36A14.78,14.78,0,0,1,27,76.56c1.71-.78,3.28-1.76,3.42-2.2.39-1,3.62-2.59,4.7-2.35A4.7,4.7,0,0,1,37,74l1,1.81.43,0,6.24-1.76,6.21-31.2c-4.3-.51-12.39-2.18-13.91-3-1-.54-1.27-1.91-.54-3.33.25-.44,1.27-2.59,2.25-4.69a42.57,42.57,0,0,1,3.43-6.27,9,9,0,0,0,1.71-3.52,9.42,9.42,0,0,1,.73-2.84A7.23,7.23,0,0,0,45,15.7c-.34-2.3.69-2.39,1.13,0,.39,2.16,1.17,2.74,1.17.88a13.05,13.05,0,0,1,.3-2.49c.58-2.1,1.32-1.13,1,1.37a8.72,8.72,0,0,0-.09,2.44,6.75,6.75,0,0,0,1.22-2c.54-1.08,1.22-2,1.47-2,.68,0,.58.78-.3,2.5-1,2-.54,2.39.59.49.49-.79,1-1.37,1.27-1.23.44.3-1.27,3.87-2,4.36-1.08.63-.49,1.71.93,1.71s2.39.73,1.76,1.37a8.91,8.91,0,0,1-2.84.59L48,24,46.2,27.39c-1.67,3.14-2.5,7.15-1.47,7.1,1.51-.05,7.19-2,8-2.74a5.2,5.2,0,0,1,.5-.39l4.21-21.12H27.8L10,99.21H94.78L99,78.49H75.51c-.33.78-.68,1.57-1.09,2.42A27,27,0,0,0,72.71,85.07Z"/><path d="M110.53,20.89c-2.65.24-7.44.44-10.67.44a30.8,30.8,0,0,0-8.56.73,70.91,70.91,0,0,1-9.54,1.18,69.22,69.22,0,0,0-10,1.17c-2.93.69-3.23.69-3.81-.1a3.55,3.55,0,0,1-.35-2.59c.44-2.5-.63-6.16-2.1-7.29a5.21,5.21,0,0,0-3.28-1c-1.81,0-2.35.25-3.67,1.81s-1.56,2-1.37,4.16a6,6,0,0,0,1.57,3.77,3.25,3.25,0,0,1,1.17,3c-.14,1.52-.44,1.81-3.18,3.13a25.81,25.81,0,0,0-3.51,2L50.91,42.85c.69.08,1.29.14,1.74.15l3.18,0-.09,3.18c-.54,16.58-.54,16.48-2.55,18.3a3.62,3.62,0,0,0-1,1.36A40.13,40.13,0,0,1,50.7,70.1c-1,2.45-1.32,3.82-1,4,.59.39-.1,2.65-1,3.18a3.42,3.42,0,0,1-2.2-.73c-1.42-.88-2.3-1-5.14-.88l-2.94.13-9.52,2.68h31.7a12.44,12.44,0,0,0,2-3.74c1.23-3.18,1.52-1.91.34,1.52a13.4,13.4,0,0,0-.62,2.22H75.51c2.2-5.24,2.7-9.25,2.88-19,.44-25.25.53-27.94,1.07-28.47a8.7,8.7,0,0,1,3.38-.79,9.79,9.79,0,0,0,3.57-.78c.93-.73,4.69-1.61,8.8-2a38.59,38.59,0,0,0,6.85-1.56c3.53-1.22,3.67-1.22,5.14-.39,2.4,1.37,6.75,2.74,7.24,2.25.24-.25-.1-.69-.93-1.08-2.69-1.37-2.1-2,2.4-2.64,1.47-.2,2.35-.54,2.39-1a10.06,10.06,0,0,1,.1-1.27C118.5,20.69,115.61,20.4,110.53,20.89Z"/></svg>