<svg id="Calque_1" data-name="Calque 1" xmlns="http://www.w3.org/2000/svg" viewBox="0 0 900 267"><title>Plan de travail 1</title><path d="M139.48,169.75a14.34,14.34,0,0,1-4.18-3.06c0,.12-.08.23-.12.36-.72,2-1.69,4.64-2.72,7.36a51.18,51.18,0,0,0-2.65,7.53c-.42,1.78-.39,2.81.06,3.07.78.52.71,2.27.16,4.06s-1.58,3.64-2.74,4.35a3.71,3.71,0,0,1-2.28-.24,15.91,15.91,0,0,1-3.54-1.7,14.2,14.2,0,0,0-5.39-2.18,39,39,0,0,0-8.2-.15l-4.46.2-4.46.19-1.36-2.39-1.36-2.4a17.73,17.73,0,0,0-2.5-3.47,6.44,6.44,0,0,0-2.41-1.83c-1.42-.32-4.27.58-6.89,1.89s-5,3-5.53,4.32c-.19.58-1.32,1.52-3,2.57a53.33,53.33,0,0,1-6.08,3.25,48.84,48.84,0,0,0-6.78,3.83,24.1,24.1,0,0,0-4.73,3.93c-3,3.62-4.5,7.82-4.4,11.12s1.75,5.69,4.91,5.69a11.38,11.38,0,0,0,3.59-1.19,46.26,46.26,0,0,0,5.34-2.94,24.29,24.29,0,0,1,7.27-3.5c2.33-.58,5-.71,9.41-.77,2.72-.07,5.4-.23,7.54-.44a17.53,17.53,0,0,0,4.23-.73c.84-.32,5.34,1.3,9.93,3.3s9.28,4.4,10.51,5.63c.13.13,0,.64-.23,1.39a26.92,26.92,0,0,1-1.19,2.75,32.1,32.1,0,0,0-1.65,3.2c-.49,1.06-.87,2-1.07,2.62a3.34,3.34,0,0,1-1.21,1.65,3.27,3.27,0,0,1-1.89.67c-1.62,0-4.82,2.59-7.76,5.76s-5.63,6.92-6.21,9.25a7.63,7.63,0,0,0,.32,5.22,4.9,4.9,0,0,0,3.43,2.8,5.94,5.94,0,0,0,2.94-.81,26.52,26.52,0,0,0,4.3-2.56,23.14,23.14,0,0,1,5.92-3.21,31.43,31.43,0,0,1,7.27-1.57,30.58,30.58,0,0,0,5.87-1.17c1.51-.48,2.48-1,2.67-1.55.65-1.68,5.37-3.2,11.8-4.18a109.83,109.83,0,0,1,22.09-1c6.4.45,9.89.65,12.19.4a8.34,8.34,0,0,0,5-2.21c1.75-1.3,4.59-5.27,7-9.3s4.38-8.1,4.38-9.59a20.46,20.46,0,0,1,1.34-3.84c.83-2,2-4.56,3.19-7.15,4.14-8.73,6.63-15.49,8.15-23.78.45-2.5.82-5.13,1.12-8H146A14.59,14.59,0,0,1,139.48,169.75Z"/><path d="M161.46,136.76l-2,10.18a2.83,2.83,0,0,0,.29,2,3.31,3.31,0,0,0,3,1.58h42.84c0-1.38.06-2.8.09-4.28.06-3.43.11-6.7.17-9.83H161.91A.46.46,0,0,0,161.46,136.76Z"/><path d="M155.5,103.85,167,107.28a.48.48,0,0,1,.32.53l-1.72,8.71a.46.46,0,0,0,.45.55h40.16c.1-5.3.2-10,.29-14.11H155.64A.46.46,0,0,0,155.5,103.85Z"/><path d="M146,82.24h61c.36-8.72.77-10.64,1.44-11.31a8.69,8.69,0,0,1,3.2-1.18,47.19,47.19,0,0,1,5.73-.89,37,37,0,0,0,5.88-.84,11.7,11.7,0,0,0,3.56-1.22c1.23-1,4.33-2,8.49-3a119.7,119.7,0,0,1,14.79-2.31A87,87,0,0,0,259,59.91a96.35,96.35,0,0,0,9.3-2.56c4.65-1.61,7.08-2.42,8.82-2.55s2.82.42,4.76,1.52a63.09,63.09,0,0,0,11.46,4.82c3.83,1.19,7,1.78,7.68,1.13.32-.32.26-.78-.16-1.28a7,7,0,0,0-2.3-1.57c-3.55-1.81-4.95-3.13-4-4.22s4.35-1.92,10.3-2.76a19.26,19.26,0,0,0,4.58-1.07c1.08-.45,1.69-1,1.76-1.65s0-1.13.08-1.73.11-1.18.18-1.63c.13-1.29-1.72-2.13-5.27-2.49a85.51,85.51,0,0,0-15.56.42c-3.49.32-8.4.61-13.51.82s-10.42.34-14.68.34c-5.37-.06-9.8.07-13.5.39a48.76,48.76,0,0,0-9.14,1.55,90.65,90.65,0,0,1-10.33,1.7c-4.57.57-9.91,1.09-14.89,1.41s-10.44.74-15.25,1.31a103.25,103.25,0,0,0-11.26,1.79c-3.88.91-6,1.36-7.38,1.33A3,3,0,0,1,178,53.34a6.25,6.25,0,0,1-1-2.84,13.13,13.13,0,0,1,.13-4,25.62,25.62,0,0,0-.89-11c-1.05-3.63-2.73-6.8-4.67-8.28a11,11,0,0,0-3.8-1.93,17.43,17.43,0,0,0-4.87-.66,11.71,11.71,0,0,0-5.33.84c-1.39.68-2.62,1.88-4.37,4s-2.91,3.46-3.41,5-.47,3.18-.21,6a21.22,21.22,0,0,0,1.34,5.71,13.65,13.65,0,0,0,2.8,4.25,12.22,12.22,0,0,1,2.72,3.86,8.4,8.4,0,0,1,.39,4.16c-.2,2-.49,3.2-1.64,4.33s-3.15,2.2-6.77,4A71.73,71.73,0,0,0,142,70.08,30.84,30.84,0,0,0,137.76,73c-1,1-5.3,2.75-9.81,4.3s-9.27,2.88-11.27,3c-1.36.06-1.49-2.56-.73-6.23a50.05,50.05,0,0,1,4.61-12.53L123,57l2.4-4.53,3.36-.32,3.36-.33c1.81-.19,3.59-.45,5-.73a6.07,6.07,0,0,0,2.54-.82,1.48,1.48,0,0,0-.24-2.44,7.38,7.38,0,0,0-4.41-1.18c-1.88,0-3.2-.71-3.71-1.63s-.17-2.06,1.25-2.9c1-.65,2.68-3.33,3.93-6s2.08-5.17,1.5-5.56c-.32-.19-.84.1-1.44.7a14.79,14.79,0,0,0-1.92,2.53c-1.49,2.53-2.56,3.53-2.91,3.24s0-1.88,1.36-4.53a17.22,17.22,0,0,0,1.94-5c.13-1.08-.26-1.6-1.17-1.6-.32,0-.93.59-1.65,1.52a23.93,23.93,0,0,0-2.23,3.66c-.71,1.42-1.42,2.71-2,3.65s-1,1.52-1.23,1.52-.16-.74-.11-1.92.17-2.8.37-4.55c.39-3.29.09-5.59-.49-6.37s-1.45,0-2.23,2.75c-.19.84-.39,2-.53,3.2a29,29,0,0,0-.24,3.4c0,2.46-.52,3.3-1.17,2.81s-1.42-2.29-1.94-5.14c-.58-3.1-1.55-4.59-2.26-4.54s-1.17,1.63-.71,4.67a15.72,15.72,0,0,1,.06,4.66,20.92,20.92,0,0,1-1.1,4.65,31.92,31.92,0,0,0-1.36,4,15.64,15.64,0,0,0-.58,3.46,11.48,11.48,0,0,1-1.34,4,35.24,35.24,0,0,1-3.19,5.29c-1.22,1.74-2.87,4.46-4.52,7.45s-3.3,6.26-4.53,9.1-2.62,5.6-3.7,7.86-1.93,4-2.25,4.56a8.56,8.56,0,0,0-1,5.27,4.72,4.72,0,0,0,2.45,3.52c2.33,1.23,10.51,3.24,19.19,5s17.87,3.18,22.2,3.31l3.9.06,4-20.2A.45.45,0,0,1,146,82.24Z"/><polygon points="127.98 150.49 57.94 150.49 73.7 146.04 86.41 82.24 56.8 82.24 39 171.21 123.78 171.21 127.98 150.49"/><path d="M208.82,136.38a.45.45,0,0,0,.45-.36l3.63-18.41a.45.45,0,0,0-.45-.54h-6.26c-.11,5.69-.22,12.11-.35,19.31Z"/><path d="M137.16,161.76a24.54,24.54,0,0,1,1.9-2.1c2.65-2.39,4-3.52,4.81-9.54s1.2-16.91,1.91-38.83l.13-4.21.13-4.2-4.2-.06h-.31l-10.12,50.61a14.69,14.69,0,0,0,.25,6.67,15.64,15.64,0,0,0,2.86,5.72c.24.31.51.59.78.88a22.16,22.16,0,0,0,1-3.41A3.38,3.38,0,0,1,137.16,161.76Z"/><path d="M210.6,171.21a.45.45,0,0,0,.45-.37l3.89-19.8a.47.47,0,0,0-.45-.55h-8.91c-.2,8.34-.52,15-1.12,20.72Z"/><path d="M228.21,82.24H207.07c0,.58,0,1.19-.08,1.84-.17,4.52-.33,10.63-.51,18.88H224.2a.46.46,0,0,0,.45-.37l4-19.8A.46.46,0,0,0,228.21,82.24Z"/><path d="M333.51,93.3a16,16,0,0,0-2.86-5.66,14.27,14.27,0,0,0-5-3.94,14.74,14.74,0,0,0-6.55-1.46H257.5a14.74,14.74,0,0,0-9.47,3.3,14.1,14.1,0,0,0-5.15,8.65l-15.38,77h26.69l5.09-25.16h38.51l-5.08,25.16H319.4l14.23-71.3A13.41,13.41,0,0,0,333.51,93.3Zm-27.84,13.21L302,125.2H263.34l3.56-17.8L252.16,103h50.59A2.81,2.81,0,0,1,305,104,2.87,2.87,0,0,1,305.67,106.51Z"/><path d="M442.56,82.24H359.82a14.5,14.5,0,0,0-9.41,3.3,14.19,14.19,0,0,0-5.08,8.65L333,155.58a12.4,12.4,0,0,0,.12,5.85,13.8,13.8,0,0,0,2.55,5,12.52,12.52,0,0,0,4.44,3.49,13.14,13.14,0,0,0,5.72,1.27h61.91a23.46,23.46,0,0,0,8.07-1.4,22.8,22.8,0,0,0,6.93-3.94,24.85,24.85,0,0,0,5.21-6,24.18,24.18,0,0,0,3.05-7.69l6.73-34.32H389.18l-1.4,7.11a9.18,9.18,0,0,0,.13,4,8.79,8.79,0,0,0,1.71,3.43,9,9,0,0,0,3,2.35,8.34,8.34,0,0,0,3.81.89h11.06l-2.41,12.46A3.25,3.25,0,0,1,404,149.8a2.84,2.84,0,0,1-1.85.69H364.39a2.85,2.85,0,0,1-2.29-1.08,2.9,2.9,0,0,1-.63-2.47l7.88-39.54L354.48,103h83.89Z"/><path d="M521.12,82.24,507.9,148.08a3.25,3.25,0,0,1-1.08,1.72,2.84,2.84,0,0,1-1.85.69H454.89l14.87-4.44,12.72-63.81h-26.7l-14.23,71.18a14.69,14.69,0,0,0,.25,6.67,15.79,15.79,0,0,0,2.86,5.72,14.18,14.18,0,0,0,5,3.94,14.59,14.59,0,0,0,6.54,1.46h61.65a14.74,14.74,0,0,0,9.47-3.3,14.12,14.12,0,0,0,5.15-8.65l15.38-77Z"/><path d="M652.55,93.3a16,16,0,0,0-2.86-5.66,14.27,14.27,0,0,0-5-3.94,14.77,14.77,0,0,0-6.55-1.46H576.53a14.73,14.73,0,0,0-9.46,3.3,14.05,14.05,0,0,0-5.15,8.65l-15.38,77h26.69l5.08-25.16h38.52l-5.09,25.16h26.7l14.23-71.3A13.41,13.41,0,0,0,652.55,93.3Zm-27.84,13.21L621,125.2H582.38l3.56-17.8L571.2,103h50.59a2.81,2.81,0,0,1,2.28,1.08A2.87,2.87,0,0,1,624.71,106.51Z"/><path d="M755,87.64a14.77,14.77,0,0,0-5-3.94,14.46,14.46,0,0,0-6.42-1.46H678.86a14.5,14.5,0,0,0-9.41,3.3,14.19,14.19,0,0,0-5.08,8.65L652,155.58a12.27,12.27,0,0,0,.12,5.85,13.94,13.94,0,0,0,2.54,5,12.56,12.56,0,0,0,4.45,3.49,13.11,13.11,0,0,0,5.72,1.27H731.1a14.48,14.48,0,0,0,9.4-3.3,14.22,14.22,0,0,0,5.09-8.65l3.56-17.66h-26.7l-1.27,6.48a2.82,2.82,0,0,1-2.92,2.41H683.43a2.85,2.85,0,0,1-2.29-1.08,2.9,2.9,0,0,1-.63-2.47l7.88-39.54L673.52,103h53.64a2.81,2.81,0,0,1,2.28,1.08,2.87,2.87,0,0,1,.64,2.47l-1.14,5.34h26.69L758,99.91a13.41,13.41,0,0,0-.12-6.61A15.36,15.36,0,0,0,755,87.64Z"/><polygon points="829.86 82.24 804.69 114.9 788.42 82.24 760.2 82.24 788.42 135.62 803.29 140.07 787.53 140.07 781.68 171.21 810.67 171.21 817.28 135.62 861 82.24 829.86 82.24"/></svg>